HIERARCHY
ROOT Hips
{
	OFFSET 0.000000 0.000000 0.000000
	CHANNELS 6 Xposition Yposition Zposition Xrotation Yrotation Zrotation
	JOINT LeftUpLeg_virtual
	{
		OFFSET 0.000000 0.000000 0.000000
		CHANNELS 3 Xrotation Yrotation Zrotation
		JOINT LeftUpLeg
		{
			OFFSET 13.026900 -6.336304 -1.092800
			CHANNELS 3 Xrotation Yrotation Zrotation
			JOINT LeftLeg
			{
				OFFSET 0.524474 -46.096886 9.782700
				CHANNELS 3 Xrotation Yrotation Zrotation
				JOINT LeftFoot
				{
					OFFSET -0.524474 -53.427422 -12.948200
					CHANNELS 3 Xrotation Yrotation Zrotation
					JOINT LeftToeBase
					{
						OFFSET 0.192200 -14.009700 16.364100
						CHANNELS 3 Xrotation Yrotation Zrotation
						JOINT LeftToe_End
						{
							OFFSET -1.784700 -0.561700 9.474800
							CHANNELS 3 Xrotation Yrotation Zrotation
							End Site
							{
								OFFSET 0 0 0
							}
						}
					}
				}
			}
		}
	}
	JOINT RightUpLeg_virtual
	{
		OFFSET 0.000000 0.000000 0.000000
		CHANNELS 3 Xrotation Yrotation Zrotation
		JOINT RightUpLeg
		{
			OFFSET -12.883000 -6.336304 -1.092800
			CHANNELS 3 Xrotation Yrotation Zrotation
			JOINT RightLeg
			{
				OFFSET -0.524587 -46.096825 9.782800
				CHANNELS 3 Xrotation Yrotation Zrotation
				JOINT RightFoot
				{
					OFFSET 0.524587 -53.427383 -12.948300
					CHANNELS 3 Xrotation Yrotation Zrotation
					JOINT RightToeBase
					{
						OFFSET -0.192200 -14.009700 16.364100
						CHANNELS 3 Xrotation Yrotation Zrotation
						JOINT RightToe_End
						{
							OFFSET 1.784700 -0.561700 9.474800
							CHANNELS 3 Xrotation Yrotation Zrotation
							End Site
							{
								OFFSET 0 0 0
							}
						}
					}
				}
			}
		}
	}
	JOINT Spine_virtual
	{
		OFFSET 0.000000 0.000000 0.000000
		CHANNELS 3 Xrotation Yrotation Zrotation
		JOINT Spine
		{
			OFFSET 0.072000 7.257294 -0.789700
			CHANNELS 3 Xrotation Yrotation Zrotation
			JOINT Spine1
			{
				OFFSET 0.000000 12.508769 -0.658067
				CHANNELS 3 Xrotation Yrotation Zrotation
				JOINT Spine1_split
				{
					OFFSET 0.000000 12.508769 -0.658067
					CHANNELS 3 Xrotation Yrotation Zrotation
					JOINT Spine2
					{
						OFFSET 0.000000 12.508769 -0.658067
						CHANNELS 3 Xrotation Yrotation Zrotation
						JOINT Neck_virtual
						{
							OFFSET 0.000000 0.000000 0.000000
							CHANNELS 3 Xrotation Yrotation Zrotation
							JOINT Neck
							{
								OFFSET 0.000000 14.033295 7.520400
								CHANNELS 3 Xrotation Yrotation Zrotation
								JOINT Head
								{
									OFFSET 0.000000 8.198502 5.703100
									CHANNELS 3 Xrotation Yrotation Zrotation
									JOINT HeadTop_End
									{
										OFFSET 0.000000 17.760803 13.332701
										CHANNELS 3 Xrotation Yrotation Zrotation
										End Site
										{
											OFFSET 0 0 0
										}
									}
								}
							}
						}
						JOINT LeftShoulder_virtual
						{
							OFFSET 0.000000 0.000000 0.000000
							CHANNELS 3 Xrotation Yrotation Zrotation
							JOINT LeftShoulder
							{
								OFFSET 6.292450 5.785301 -0.669000
								CHANNELS 3 Xrotation Yrotation Zrotation
								JOINT LeftShoulder_split
								{
									OFFSET 6.292450 5.785301 -0.669000
									CHANNELS 3 Xrotation Yrotation Zrotation
									JOINT LeftArm
									{
										OFFSET 13.907140 -6.093903 1.965100
										CHANNELS 3 Xrotation Yrotation Zrotation
										JOINT LeftForeArm
										{
											OFFSET 34.140198 0.000000 0.000000
											CHANNELS 3 Xrotation Yrotation Zrotation
											JOINT LeftHand
											{
												OFFSET 40.960209 0.000000 0.000000
												CHANNELS 3 Xrotation Yrotation Zrotation
												End Site
												{
													OFFSET 0 0 0
												}
											}
										}
									}
								}
							}
						}
						JOINT RightShoulder_virtual
						{
							OFFSET 0.000000 0.000000 0.000000
							CHANNELS 3 Xrotation Yrotation Zrotation
							JOINT RightShoulder
							{
								OFFSET -6.292450 5.785301 -0.669000
								CHANNELS 3 Xrotation Yrotation Zrotation
								JOINT RightShoulder_split
								{
									OFFSET -6.292450 5.785301 -0.669000
									CHANNELS 3 Xrotation Yrotation Zrotation
									JOINT RightArm
									{
										OFFSET -13.907140 -6.093903 1.965100
										CHANNELS 3 Xrotation Yrotation Zrotation
										JOINT RightForeArm
										{
											OFFSET -34.140198 0.000000 0.000000
											CHANNELS 3 Xrotation Yrotation Zrotation
											JOINT RightHand
											{
												OFFSET -40.960209 0.000000 0.000000
												CHANNELS 3 Xrotation Yrotation Zrotation
												End Site
												{
													OFFSET 0 0 0
												}
											}
										}
									}
								}
							}
						}
					}
				}
			}
		}
	}
}
MOTION
Frames: 6
Frame Time: 0.03333333
3.293856 108.563652 1.909134 0.000000 0.000000 0.000000 19.811829 -85.843908 21.614422 -23.034847 31.793793 26.232858 20.212639 -8.160036 0.596558 -4.087253 2.066018 -15.805742 0.182199 -0.294757 -0.348197 0.000000 0.000000 0.000000 8.803638 -85.192335 11.542238 -21.168740 -11.344789 -23.251393 13.098518 3.529976 -4.853649 -0.018714 7.245941 19.952381 1.664144 0.274026 0.879035 0.000000 0.000000 0.000000 8.208835 -81.567902 10.347007 6.789174 -3.660115 -2.775307 1.877442 -7.896456 -0.447789 0.499891 0.240442 0.221619 0.000000 0.000000 0.000000 1.983859 -8.382105 -0.889460 -8.219538 6.098426 6.959979 91.107449 78.011292 -95.041809 0.000000 0.000000 0.000000 3.345366 -8.953971 -0.194394 5.134114 -1.178560 10.909132 -3.918757 -4.411603 3.026541 -35.494150 11.533136 -3.048172 -3.951210 -11.093111 0.453183 0.000000 0.000000 0.000000 2.573992 -8.651544 -0.795044 -0.145072 1.038622 -21.394135 0.690287 1.669322 7.645464 -49.606773 42.074853 44.744679 179.170164 37.256295 -177.940430 0.000000 0.000000 0.000000 
3.181699 108.560165 1.909859 0.000000 0.000000 0.000000 18.772556 -85.748490 20.634435 -22.898300 31.779914 26.147646 20.162534 -8.248368 0.583346 -4.115855 2.099440 -15.812262 0.173420 -0.293419 -0.352052 0.000000 0.000000 0.000000 8.045941 -85.096152 10.855816 -20.978450 -11.261284 -23.309875 13.131945 3.340391 -4.888391 -0.150030 7.201302 20.036841 1.661286 0.272309 0.876560 0.000000 0.000000 0.000000 7.928580 -81.454336 10.123087 6.771721 -3.761754 -2.844178 1.869647 -7.988684 -0.431837 0.499582 0.242032 0.217734 0.000000 0.000000 0.000000 1.989257 -8.475330 -0.878296 -8.240799 6.170111 7.178070 93.786762 77.944029 -97.519597 0.000000 0.000000 0.000000 3.366414 -9.048297 -0.168391 5.045545 -0.956485 10.928641 -3.948130 -4.413558 3.008367 -35.454556 11.375512 -3.274810 -3.961085 -11.111075 0.447869 0.000000 0.000000 0.000000 2.591265 -8.747223 -0.787309 -0.054132 1.083514 -21.316588 0.677723 1.675562 7.708761 -49.107035 41.621083 44.513402 179.190587 36.893103 -177.929665 0.000000 0.000000 0.000000 
3.070011 108.556999 1.916862 0.000000 0.000000 0.000000 17.715726 -85.657423 19.645151 -22.773767 31.765721 26.069261 20.126950 -8.329448 0.572982 -4.135961 2.123532 -15.820526 0.167144 -0.291365 -0.356450 0.000000 0.000000 0.000000 7.276744 -84.997237 10.162938 -20.781117 -11.178093 -23.364151 13.160017 3.153984 -4.926860 -0.277972 7.153080 20.110609 1.656013 0.271350 0.874562 0.000000 0.000000 0.000000 7.602614 -81.347485 9.863791 6.765374 -3.861971 -2.926592 1.859862 -8.080580 -0.409716 0.500764 0.241855 0.215219 0.000000 0.000000 0.000000 1.994142 -8.567356 -0.861795 -8.263045 6.250745 7.395952 96.446827 77.839732 -99.961089 0.000000 0.000000 0.000000 3.390498 -9.142776 -0.135687 4.955738 -0.742912 10.951871 -3.969796 -4.411645 2.994376 -35.425138 11.230350 -3.500553 -3.977679 -11.115288 0.434215 0.000000 0.000000 0.000000 2.608234 -8.842354 -0.774088 0.043425 1.129845 -21.231052 0.664287 1.690516 7.767971 -48.573949 41.152525 44.255261 179.218686 36.538592 -177.917016 0.000000 0.000000 0.000000 
2.959654 108.551567 1.927467 0.000000 0.000000 0.000000 16.666869 -85.569860 18.668850 -22.662551 31.751159 26.000189 20.105020 -8.402761 0.564122 -4.154766 2.141953 -15.828275 0.166151 -0.288534 -0.362260 0.000000 0.000000 0.000000 6.508409 -84.893473 9.473061 -20.579695 -11.094671 -23.416709 13.187624 2.974695 -4.968577 -0.398491 7.105816 20.181602 1.643619 0.271101 0.873292 0.000000 0.000000 0.000000 7.239684 -81.248126 9.575660 6.772008 -3.960369 -3.020628 1.848190 -8.170258 -0.381217 0.501307 0.242759 0.214814 0.000000 0.000000 0.000000 1.998283 -8.655733 -0.839977 -8.283110 6.339114 7.604722 99.027361 77.702991 -102.316848 0.000000 0.000000 0.000000 3.416993 -9.235471 -0.096602 4.868249 -0.548949 10.979666 -3.978654 -4.405171 2.982465 -35.406765 11.108524 -3.713951 -4.000355 -11.113286 0.412526 0.000000 0.000000 0.000000 2.623943 -8.934901 -0.754781 0.147304 1.181318 -21.136408 0.647761 1.709131 7.818582 -48.016479 40.685668 43.968113 179.258301 36.204914 -177.904995 0.000000 0.000000 0.000000 
2.850566 108.541138 1.940105 0.000000 0.000000 0.000000 15.650007 -85.484728 17.725785 -22.563567 31.734466 25.941309 20.095714 -8.471135 0.555622 -4.177571 2.157036 -15.837228 0.168346 -0.284935 -0.369096 0.000000 0.000000 0.000000 5.756652 -84.786581 8.799892 -20.381933 -11.010740 -23.469522 13.221290 2.805723 -5.011710 -0.510725 7.064735 20.255771 1.628194 0.271681 0.872736 0.000000 0.000000 0.000000 6.852252 -81.158002 9.268463 6.791637 -4.057345 -3.124015 1.834440 -8.255890 -0.346359 0.501331 0.241213 0.218884 0.000000 0.000000 0.000000 2.001364 -8.738897 -0.812451 -8.298957 6.433657 7.796313 101.475082 77.539996 -104.543784 0.000000 0.000000 0.000000 3.443660 -9.324012 -0.051980 4.787342 -0.385086 11.011615 -3.973544 -4.399072 2.973612 -35.398613 11.019256 -3.905086 -4.024991 -11.114433 0.386712 0.000000 0.000000 0.000000 2.638157 -9.022571 -0.728676 0.255781 1.238918 -21.033091 0.629049 1.729429 7.857758 -47.442436 40.233765 43.652781 179.311044 35.901219 -177.895009 0.000000 0.000000 0.000000 
2.743569 108.523445 1.951473 0.000000 0.000000 0.000000 14.698571 -85.403770 16.845671 -22.473638 31.715099 25.892255 20.099039 -8.536991 0.546129 -4.205966 2.170173 -15.848441 0.168975 -0.280802 -0.375862 0.000000 0.000000 0.000000 5.043741 -84.677926 8.162765 -20.194335 -10.926073 -23.523031 13.264000 2.648268 -5.054782 -0.619414 7.031726 20.331873 1.618564 0.273427 0.872265 0.000000 0.000000 0.000000 6.466488 -81.075793 8.962662 6.821711 -4.152549 -3.234284 1.819279 -8.335992 -0.305537 0.500446 0.237154 0.221324 0.000000 0.000000 0.000000 2.003282 -8.815438 -0.779313 -8.311342 6.530910 7.966855 103.754719 77.358340 -106.615981 0.000000 0.000000 0.000000 3.468657 -9.406504 -0.002606 4.717210 -0.260382 11.049623 -3.953655 -4.393391 2.967947 -35.397298 10.963138 -4.064967 -4.045111 -11.119849 0.361067 0.000000 0.000000 0.000000 2.649786 -9.103365 -0.695686 0.366922 1.302817 -20.921996 0.613258 1.751759 7.882810 -46.857481 39.802794 43.315045 179.375466 35.632639 -177.885515 0.000000 0.000000 0.000000 
